<?xml version="1.0" standalone="no"?>
<svg viewBox="0 0 200 200" xmlns="http://www.w3.org/2000/svg">
  <path fill="#F5E9E9" d="M33.7,-59C42.5,-46.9,47.4,-35.4,56.8,-23.4C66.2,-11.4,80,1,77.6,10.4C75.1,19.8,56.3,26.2,42.5,30.4C28.8,34.6,20.1,36.7,10.1,44.1C0,51.5,-11.3,64.3,-25.2,68.3C-39.1,72.2,-55.6,67.3,-61.2,55.8C-66.9,44.3,-61.8,26.2,-57.9,12.1C-54.1,-2,-51.6,-12.2,-47.9,-22.5C-44.2,-32.9,-39.4,-43.3,-31.2,-55.6C-23,-67.9,-11.5,-82.1,0.5,-82.8C12.5,-83.6,25,-71,33.7,-59Z" transform="translate(100 100)" />
</svg>
